<?xml version="1.0" standalone="no"?>
<!DOCTYPE svg PUBLIC "-//W3C//DTD SVG 20010904//EN"
 "http://www.w3.org/TR/2001/REC-SVG-20010904/DTD/svg10.dtd">
<svg version="1.0" xmlns="http://www.w3.org/2000/svg"
 width="1280.000000pt" height="1280.000000pt" viewBox="0 0 1280.000000 1280.000000"
 preserveAspectRatio="xMidYMid meet">
<metadata>
Created by potrace 1.14, written by Peter Selinger 2001-2017
</metadata>
<g transform="translate(0.000000,1280.000000) scale(0.100000,-0.100000)"
fill="#000000" stroke="none">
<path d="M0 6400 l0 -6400 6400 0 6400 0 0 6400 0 6400 -6400 0 -6400 0 0
-6400z m9078 1353 l2 -2823 103 0 c179 0 324 -52 455 -163 119 -100 171 -187
267 -442 147 -394 185 -496 185 -501 0 -2 -227 -4 -505 -4 l-505 0 0 -604 0
-604 390 -391 c215 -214 390 -393 390 -396 0 -3 -795 -5 -1767 -5 l-1767 0
-306 303 c-328 327 -372 361 -540 430 -148 61 -204 67 -644 67 l-391 -1 402
-399 403 -400 -358 0 -357 0 -407 406 -408 406 0 2033 0 2034 423 3 c473 4
475 4 623 79 45 22 106 62 136 89 30 27 173 193 318 369 144 177 265 321 269
321 7 0 515 -1268 514 -1285 0 -5 -103 -221 -228 -480 -125 -258 -256 -528
-290 -600 -132 -274 -453 -938 -572 -1185 -47 -96 -109 -224 -138 -285 -29
-60 -137 -283 -239 -494 -102 -212 -186 -389 -186 -393 0 -4 160 -8 356 -8
379 0 424 5 518 52 64 32 139 93 174 142 18 24 98 181 178 348 81 167 175 362
209 433 35 72 95 196 134 278 186 385 217 450 271 562 32 66 97 201 145 300
48 99 107 221 130 270 24 50 90 188 149 308 58 120 122 255 143 299 29 61 39
75 45 61 4 -10 16 -112 28 -228 12 -115 30 -291 40 -390 33 -298 89 -836 96
-900 16 -175 85 -278 225 -337 l54 -23 1303 -3 1303 -2 -7 22 c-10 33 -110
292 -140 363 -76 180 -205 307 -362 355 -62 19 -94 20 -842 20 l-779 0 -5 43
c-3 23 -11 96 -16 162 -6 66 -19 212 -30 325 -21 227 -28 302 -65 695 -14 149
-32 342 -40 431 l-15 160 -141 350 c-77 192 -198 493 -269 669 -71 176 -136
337 -145 358 l-15 37 370 -2 371 -3 33 -60 c18 -33 76 -145 130 -250 283 -549
310 -596 349 -636 62 -62 109 -82 203 -87 109 -6 166 13 240 80 30 28 67 74
82 102 23 44 27 63 27 136 l0 85 -124 235 c-68 129 -136 258 -151 285 -15 28
-54 102 -88 165 -33 63 -94 180 -136 259 -42 79 -99 172 -127 207 -87 110
-220 195 -368 237 -75 21 -93 21 -956 25 -918 3 -1051 -1 -1180 -38 -156 -45
-296 -130 -405 -247 -36 -38 -236 -284 -445 -546 l-380 -477 -352 0 -353 0 0
1560 0 1560 2678 -2 2677 -3 3 -2822z"/>
<path d="M5368 10200 c-78 -13 -188 -52 -256 -92 -31 -18 -93 -69 -137 -113
-257 -257 -272 -656 -35 -943 72 -88 199 -171 325 -213 61 -21 89 -24 210 -23
130 0 146 2 222 30 111 41 183 87 263 166 104 102 165 214 195 360 75 355
-155 720 -512 812 -76 20 -203 27 -275 16z"/>
</g>
</svg>
